<svg width="24" height="24" viewBox="0 0 24 24" fill="none" xmlns="http://www.w3.org/2000/svg">
<path d="M8.00006 11.9999C7.9993 11.8683 8.02452 11.7379 8.07429 11.616C8.12405 11.4942 8.19738 11.3834 8.29006 11.2899L14.2901 5.28994C14.4784 5.10164 14.7338 4.99585 15.0001 4.99585C15.2664 4.99585 15.5218 5.10164 15.7101 5.28994C15.8984 5.47825 16.0042 5.73364 16.0042 5.99994C16.0042 6.26624 15.8984 6.52164 15.7101 6.70994L10.4101 11.9999L15.7001 17.2899C15.8639 17.4812 15.9495 17.7273 15.9398 17.979C15.93 18.2307 15.8257 18.4694 15.6476 18.6475C15.4695 18.8256 15.2308 18.9299 14.9791 18.9397C14.7274 18.9494 14.4814 18.8638 14.2901 18.6999L8.29006 12.6999C8.10531 12.5137 8.00116 12.2623 8.00006 11.9999Z" fill="white" fill-opacity="0.6"/>
</svg>
