<svg width="24" height="24" viewBox="0 0 24 24" fill="none" xmlns="http://www.w3.org/2000/svg">
<path d="M15.9999 11.9999C16.0007 11.8683 15.9755 11.7379 15.9257 11.616C15.8759 11.4942 15.8026 11.3834 15.7099 11.2899L9.70994 5.28994C9.52164 5.10164 9.26624 4.99585 8.99994 4.99585C8.73364 4.99585 8.47825 5.10164 8.28994 5.28994C8.10164 5.47825 7.99585 5.73364 7.99585 5.99994C7.99585 6.26624 8.10164 6.52164 8.28994 6.70994L13.5899 11.9999L8.29994 17.2899C8.13612 17.4812 8.05051 17.7273 8.06023 17.979C8.06995 18.2307 8.17428 18.4694 8.35238 18.6475C8.53047 18.8256 8.76921 18.9299 9.02089 18.9397C9.27256 18.9494 9.51864 18.8638 9.70994 18.6999L15.7099 12.6999C15.8947 12.5137 15.9988 12.2623 15.9999 11.9999Z" fill="white" fill-opacity="0.6"/>
</svg>
